{
  "title": "Nannaku Prematho 2016 TS Telugu Movies xviD-TvMovize.mp4",
  "uid": 13929192,
  "size": 866477463,
  "categoryP": "video",
  "categoryS": "movies",
  "magnet": "?xt=urn:btih:14a83e203aa5b5f5aeed1d8f52dd161e02e0b1d9&amp;dn=Nannaku+Prematho+2016+TS+Telugu+Movies+xviD-TvMovize.mp4&amp;tr=udp%3A%2F%2Ftracker.leechers-paradise.org%3A6969&amp;tr=udp%3A%2F%2Fzer0day.ch%3A1337&amp;tr=udp%3A%2F%2Fopen.demonii.com%3A1337&amp;tr=udp%3A%2F%2Ftracker.coppersurfer.tk%3A6969&amp;tr=udp%3A%2F%2Fexodus.desync.com%3A6969",
  "seeders": 168,
  "leechers": 6,
  "uploader": "TvMovize",
  "files": 1,
  "time": 1458406405,
  "description": "Nannaku Prematho 2016 TS Telugu Movies xviD-TvMovize.mp4\r\n\r\n++ ScreenShots ++\r\n \nhttp://www.image2be.com/movie/NannakuPrematho/1.html  \nhttp://www.image2be.com/movie/NannakuPrematho/2.html  \nhttp://www.image2be.com/movie/NannakuPrematho/3.html  \nhttp://www.image2be.com/movie/NannakuPrematho/4.html  \nhttp://www.image2be.com/movie/NannakuPrematho/5.html \r\n\r\n++ Info ++\r\n\r\n\r\nFormat : MPEG-4 \r\nFormat profile : Base Media \r\nCodec ID : isom (isom/iso2/avc1/mp41) \r\nFile size : 826 MiB \r\nDuration : 1h 57mn \r\nOverall bit rate : 979 Kbps \r\nWriting application : Lavf57.20.100 \r\n\r\nVideo \r\nID : 1 \r\nFormat : AVC \r\nFormat/Info : Advanced Video Codec \r\nFormat profile :    \r\nFormat settings, CABAC : Yes \r\nFormat settings, ReFrames : 4 frames \r\nCodec ID : avc1 \r\nCodec ID/Info : Advanced Video Coding \r\nDuration : 1h 57mn \r\nBit rate : 845 Kbps \r\nWidth : 672 pixels \r\nHeight : 288 pixels \r\nDisplay aspect ratio : 2.35:1 \r\nFrame rate mode : Constant \r\nFrame rate : 25.000 fps \r\nColor space : YUV \r\nChroma subsampling : 4:2:0 \r\nBit depth : 8 bits \r\nScan type : Progressive \r\nBits/(Pixel*Frame) : 0.175 \r\nStream size : 713 MiB (86%) \r\nWriting library : x264 core 142 r2479 dd79a61 \r\nEncoding settings : cabac=1 / ref=1 / deblock=1:0:0 / analyse=0x1:0x111 / me=hex / subme=2 / psy=1 / psy_rd=1.00:0.00 / mixed_ref=0 / me_range=16 / chroma_me=1 / trellis=0 / 8x8dct=0 / cqm=0 / deadzone=21,11 / fast_pskip=1 / chroma_qp_offset=0 / threads=6 / lookahead_threads=2 / sliced_threads=0 / nr=0 / decimate=1 / interlaced=0 / bluray_compat=0 / constrained_intra=0 / bframes=3 / b_pyramid=2 / b_adapt=1 / b_bias=0 / direct=1 / weightb=1 / open_gop=0 / weightp=1 / keyint=250 / keyint_min=25 / scenecut=40 / intra_refresh=0 / rc_lookahead=10 / rc=crf / mbtree=1 / crf=20.0 / qcomp=0.60 / qpmin=0 / qpmax=69 / qpstep=4 / vbv_maxrate=20000 / vbv_bufsize=25000 / crf_max=0.0 / nal_hrd=none / filler=0 / ip_ratio=1.40 / aq=1:1.00 \r\nColor range : Limited \r\nColor primaries : BT.601 PAL \r\nTransfer characteristics : BT.709 \r\nMatrix coefficients : BT.601 \r\n\r\nAudio \r\nID : 2 \r\nFormat : AAC \r\nFormat/Info : Advanced Audio Codec \r\nFormat profile : LC \r\nCodec ID : 40 \r\nDuration : 1h 57mn \r\nBit rate mode : Constant \r\nBit rate : 128 Kbps \r\nChannel(s) : 2 channels \r\nChannel positions : Front: L R \r\nSampling rate : 48.0 KHz \r\nFrame rate : 46.875 fps (1024 spf) \r\nCompression mode : Lossy \r\nStream size : 108 MiB (13%) \r\nTitle : Stereo \r\nDefault : Yes \r\nAlternate group : 1",
  "parsed": {
    "xt": "urn:btih:14a83e203aa5b5f5aeed1d8f52dd161e02e0b1d9",
    "dn": "Nannaku Prematho 2016 TS Telugu Movies xviD-TvMovize.mp4",
    "tr": [
      "udp://exodus.desync.com:6969",
      "udp://open.demonii.com:1337",
      "udp://tracker.coppersurfer.tk:6969",
      "udp://tracker.leechers-paradise.org:6969",
      "udp://zer0day.ch:1337"
    ],
    "infoHash": "14a83e203aa5b5f5aeed1d8f52dd161e02e0b1d9",
    "infoHashBuffer": {
      "type": "Buffer",
      "data": [
        20,
        168,
        62,
        32,
        58,
        165,
        181,
        245,
        174,
        237,
        29,
        143,
        82,
        221,
        22,
        30,
        2,
        224,
        177,
        217
      ]
    },
    "name": "Nannaku Prematho 2016 TS Telugu Movies xviD-TvMovize.mp4",
    "announce": [
      "udp://exodus.desync.com:6969",
      "udp://open.demonii.com:1337",
      "udp://tracker.coppersurfer.tk:6969",
      "udp://tracker.leechers-paradise.org:6969",
      "udp://zer0day.ch:1337"
    ],
    "urlList": []
  },
  "previous": 174,
  "peers": 50,
  "last_updated": "2016-12-24T17:54:42.247Z"
}